HIERARCHY
ROOT Hips
{
	OFFSET -0.561981 88.293213 6.116135
	CHANNELS 6 Xposition Yposition Zposition Zrotation Yrotation Xrotation 
	JOINT Spine
	{
		OFFSET -0.000000 8.814246 -2.080107
		CHANNELS 3 Zrotation Yrotation Xrotation
		JOINT Spine1
		{
			OFFSET -0.000000 8.844141 -0.000000
			CHANNELS 3 Zrotation Yrotation Xrotation
			JOINT Spine2
			{
				OFFSET -0.000000 11.682268 0.000000
				CHANNELS 3 Zrotation Yrotation Xrotation
				JOINT Spine3
				{
					OFFSET 0.000000 11.746700 -0.000000
					CHANNELS 3 Zrotation Yrotation Xrotation
					JOINT Neck
					{
						OFFSET 0.000000 17.658264 -0.000000
						CHANNELS 3 Zrotation Yrotation Xrotation
						JOINT Neck1
						{
							OFFSET 0.000000 5.101515 -0.000000
							CHANNELS 3 Zrotation Yrotation Xrotation
							JOINT Head
							{
								OFFSET -0.000000 5.101515 -0.000000
								CHANNELS 3 Zrotation Yrotation Xrotation
								JOINT HeadEnd
								{
									OFFSET -0.000000 11.655085 0.000000
									CHANNELS 3 Zrotation Yrotation Xrotation
									End Site
									{
										OFFSET 0.000000 0.000000 0.000000
									}
								}
							}
						}
					}
					JOINT RightShoulder
					{
						OFFSET -2.625389 11.175210 -0.000000
						CHANNELS 3 Zrotation Yrotation Xrotation
						JOINT RightArm
						{
							OFFSET -0.000000 10.434715 0.000000
							CHANNELS 3 Zrotation Yrotation Xrotation
							JOINT RightForeArm
							{
								OFFSET 0.000000 29.628420 -0.000000
								CHANNELS 3 Zrotation Yrotation Xrotation
								JOINT RightHand
								{
									OFFSET 0.000000 22.857611 -0.000000
									CHANNELS 3 Zrotation Yrotation Xrotation
									JOINT RightHandThumb1
									{
										OFFSET -2.867323 3.959563 2.944291
										CHANNELS 3 Zrotation Yrotation Xrotation
										JOINT RightHandThumb2
										{
											OFFSET -0.000000 3.350399 0.000000
											CHANNELS 3 Zrotation Yrotation Xrotation
											JOINT RightHandThumb3
											{
												OFFSET 0.000000 3.756509 0.000000
												CHANNELS 3 Zrotation Yrotation Xrotation
												JOINT RightHandThumb4
												{
													OFFSET -0.000000 3.147345 -0.000000
													CHANNELS 3 Zrotation Yrotation Xrotation
													End Site
													{
														OFFSET 0.000000 0.000000 0.000000
													}
												}
											}
										}
									}
									JOINT RightHandIndex1
									{
										OFFSET -0.086752 10.030893 2.345280
										CHANNELS 3 Zrotation Yrotation Xrotation
										JOINT RightHandIndex2
										{
											OFFSET -0.000000 4.061090 0.000000
											CHANNELS 3 Zrotation Yrotation Xrotation
											JOINT RightHandIndex3
											{
												OFFSET -0.000000 3.248873 0.000000
												CHANNELS 3 Zrotation Yrotation Xrotation
												JOINT RightHandIndex4
												{
													OFFSET 0.000000 2.639709 0.000000
													CHANNELS 3 Zrotation Yrotation Xrotation
													End Site
													{
														OFFSET 0.000000 0.000000 0.000000
													}
												}
											}
										}
									}
									JOINT RightHandMiddle1
									{
										OFFSET 0.104102 9.502952 0.006768
										CHANNELS 3 Zrotation Yrotation Xrotation
										JOINT RightHandMiddle2
										{
											OFFSET -0.000000 4.568727 0.000000
											CHANNELS 3 Zrotation Yrotation Xrotation
											JOINT RightHandMiddle3
											{
												OFFSET 0.000000 3.654981 -0.000000
												CHANNELS 3 Zrotation Yrotation Xrotation
												JOINT RightHandMiddle4
												{
													OFFSET -0.000000 2.741236 0.000000
													CHANNELS 3 Zrotation Yrotation Xrotation
													End Site
													{
														OFFSET 0.000000 0.000000 0.000000
													}
												}
											}
										}
									}
									JOINT RightHandRing1
									{
										OFFSET 0.086752 8.921708 -2.267442
										CHANNELS 3 Zrotation Yrotation Xrotation
										JOINT RightHandRing2
										{
											OFFSET -0.000000 4.061090 0.000000
											CHANNELS 3 Zrotation Yrotation Xrotation
											JOINT RightHandRing3
											{
												OFFSET -0.000000 3.654981 0.000000
												CHANNELS 3 Zrotation Yrotation Xrotation
												JOINT RightHandRing4
												{
													OFFSET -0.000000 2.741236 0.000000
													CHANNELS 3 Zrotation Yrotation Xrotation
													End Site
													{
														OFFSET 0.000000 0.000000 0.000000
													}
												}
											}
										}
									}
									JOINT RightHandPinky1
									{
										OFFSET -0.173504 7.976997 -4.467199
										CHANNELS 3 Zrotation Yrotation Xrotation
										JOINT RightHandPinky2
										{
											OFFSET -0.000000 3.350399 0.000000
											CHANNELS 3 Zrotation Yrotation Xrotation
											JOINT RightHandPinky3
											{
												OFFSET 0.000000 2.842763 0.000000
												CHANNELS 3 Zrotation Yrotation Xrotation
												JOINT RightHandPinky4
												{
													OFFSET -0.000000 2.639709 0.000000
													CHANNELS 3 Zrotation Yrotation Xrotation
													End Site
													{
														OFFSET 0.000000 0.000000 0.000000
													}
												}
											}
										}
									}
									JOINT RightForeArmEnd
									{
										OFFSET 0.000000 0.000000 0.000000
										CHANNELS 3 Zrotation Yrotation Xrotation
										End Site
										{
											OFFSET 0.000000 0.000000 0.000000
										}
									}
								}
								JOINT RightArmEnd
								{
									OFFSET 0.000000 0.000000 0.000000
									CHANNELS 3 Zrotation Yrotation Xrotation
									End Site
									{
										OFFSET 0.000000 0.000000 0.000000
									}
								}
							}
						}
					}
					JOINT LeftShoulder
					{
						OFFSET 2.625389 11.175210 -0.000000
						CHANNELS 3 Zrotation Yrotation Xrotation
						JOINT LeftArm
						{
							OFFSET 0.000000 10.813635 -0.000000
							CHANNELS 3 Zrotation Yrotation Xrotation
							JOINT LeftForeArm
							{
								OFFSET 0.000000 28.724781 0.000000
								CHANNELS 3 Zrotation Yrotation Xrotation
								JOINT LeftHand
								{
									OFFSET 0.644384 25.716167 -0.328871
									CHANNELS 3 Zrotation Yrotation Xrotation
									JOINT LeftHandThumb1
									{
										OFFSET 2.867323 3.959563 2.944291
										CHANNELS 3 Zrotation Yrotation Xrotation
										JOINT LeftHandThumb2
										{
											OFFSET -0.000000 3.350399 0.000000
											CHANNELS 3 Zrotation Yrotation Xrotation
											JOINT LeftHandThumb3
											{
												OFFSET 0.000000 3.756509 0.000000
												CHANNELS 3 Zrotation Yrotation Xrotation
												JOINT LeftHandThumb4
												{
													OFFSET 0.000000 3.100000 -0.000000
													CHANNELS 3 Zrotation Yrotation Xrotation
													End Site
													{
														OFFSET 0.000000 0.000000 0.000000
													}
												}
											}
										}
									}
									JOINT LeftHandIndex1
									{
										OFFSET 0.086752 10.030893 2.345280
										CHANNELS 3 Zrotation Yrotation Xrotation
										JOINT LeftHandIndex2
										{
											OFFSET 0.000000 4.061090 0.000000
											CHANNELS 3 Zrotation Yrotation Xrotation
											JOINT LeftHandIndex3
											{
												OFFSET -0.000000 3.248873 -0.000000
												CHANNELS 3 Zrotation Yrotation Xrotation
												JOINT LeftHandIndex4
												{
													OFFSET -0.000000 2.639709 -0.000000
													CHANNELS 3 Zrotation Yrotation Xrotation
													End Site
													{
														OFFSET 0.000000 0.000000 0.000000
													}
												}
											}
										}
									}
									JOINT LeftHandMiddle1
									{
										OFFSET -0.104102 9.502952 0.006768
										CHANNELS 3 Zrotation Yrotation Xrotation
										JOINT LeftHandMiddle2
										{
											OFFSET 0.000000 4.568727 0.000000
											CHANNELS 3 Zrotation Yrotation Xrotation
											JOINT LeftHandMiddle3
											{
												OFFSET -0.000000 3.654981 0.000000
												CHANNELS 3 Zrotation Yrotation Xrotation
												JOINT LeftHandMiddle4
												{
													OFFSET -0.000000 2.741236 -0.000000
													CHANNELS 3 Zrotation Yrotation Xrotation
													End Site
													{
														OFFSET 0.000000 0.000000 0.000000
													}
												}
											}
										}
									}
									JOINT LeftHandRing1
									{
										OFFSET -0.086752 8.921708 -2.267442
										CHANNELS 3 Zrotation Yrotation Xrotation
										JOINT LeftHandRing2
										{
											OFFSET -0.000000 4.061090 -0.000000
											CHANNELS 3 Zrotation Yrotation Xrotation
											JOINT LeftHandRing3
											{
												OFFSET 0.000000 3.654981 -0.000000
												CHANNELS 3 Zrotation Yrotation Xrotation
												JOINT LeftHandRing4
												{
													OFFSET -0.000000 2.741236 -0.000000
													CHANNELS 3 Zrotation Yrotation Xrotation
													End Site
													{
														OFFSET 0.000000 0.000000 0.000000
													}
												}
											}
										}
									}
									JOINT LeftHandPinky1
									{
										OFFSET 0.173504 7.976997 -4.467199
										CHANNELS 3 Zrotation Yrotation Xrotation
										JOINT LeftHandPinky2
										{
											OFFSET 0.000000 3.350399 0.000000
											CHANNELS 3 Zrotation Yrotation Xrotation
											JOINT LeftHandPinky3
											{
												OFFSET 0.000000 2.842763 0.000000
												CHANNELS 3 Zrotation Yrotation Xrotation
												JOINT LeftHandPinky4
												{
													OFFSET -0.000000 2.639709 0.000000
													CHANNELS 3 Zrotation Yrotation Xrotation
													End Site
													{
														OFFSET 0.000000 0.000000 0.000000
													}
												}
											}
										}
									}
									JOINT LeftForeArmEnd
									{
										OFFSET 0.000000 0.000000 0.000000
										CHANNELS 3 Zrotation Yrotation Xrotation
										End Site
										{
											OFFSET 0.000000 0.000000 0.000000
										}
									}
								}
								JOINT LeftArmEnd
								{
									OFFSET 0.000000 0.000000 0.000000
									CHANNELS 3 Zrotation Yrotation Xrotation
									End Site
									{
										OFFSET 0.000000 0.000000 0.000000
									}
								}
							}
						}
					}
				}
			}
		}
	}
	JOINT RightUpLeg
	{
		OFFSET -11.289943 0.000000 0.000000
		CHANNELS 3 Zrotation Yrotation Xrotation
		JOINT RightLeg
		{
			OFFSET -0.000000 -38.200325 -0.000000
			CHANNELS 3 Zrotation Yrotation Xrotation
			JOINT RightFoot
			{
				OFFSET -0.000000 -39.900856 0.000000
				CHANNELS 3 Zrotation Yrotation Xrotation
				JOINT RightToeBase
				{
					OFFSET -0.000000 0.000000 15.261641
					CHANNELS 3 Zrotation Yrotation Xrotation
					JOINT RightToeBaseEnd
					{
						OFFSET 0.000000 -0.000000 7.370709
						CHANNELS 3 Zrotation Yrotation Xrotation
						End Site
						{
							OFFSET 0.000000 0.000000 0.000000
						}
					}
				}
				JOINT RightLegEnd
				{
					OFFSET 0.000000 0.000000 0.000000
					CHANNELS 3 Zrotation Yrotation Xrotation
					End Site
					{
						OFFSET 0.000000 0.000000 0.000000
					}
				}
			}
			JOINT RightUpLegEnd
			{
				OFFSET 0.000000 0.000000 0.000000
				CHANNELS 3 Zrotation Yrotation Xrotation
				End Site
				{
					OFFSET 0.000000 0.000000 0.000000
				}
			}
		}
	}
	JOINT LeftUpLeg
	{
		OFFSET 11.315661 0.000000 0.000000
		CHANNELS 3 Zrotation Yrotation Xrotation
		JOINT LeftLeg
		{
			OFFSET -0.000000 -38.200325 0.000000
			CHANNELS 3 Zrotation Yrotation Xrotation
			JOINT LeftFoot
			{
				OFFSET 0.000000 -39.900856 0.000000
				CHANNELS 3 Zrotation Yrotation Xrotation
				JOINT LeftToeBase
				{
					OFFSET 0.000000 0.000000 15.261641
					CHANNELS 3 Zrotation Yrotation Xrotation
					JOINT LeftToeBaseEnd
					{
						OFFSET -0.000000 0.000000 7.539996
						CHANNELS 3 Zrotation Yrotation Xrotation
						End Site
						{
							OFFSET 0.000000 0.000000 0.000000
						}
					}
				}
				JOINT LeftLegEnd
				{
					OFFSET 0.000000 0.000000 0.000000
					CHANNELS 3 Zrotation Yrotation Xrotation
					End Site
					{
						OFFSET 0.000000 0.000000 0.000000
					}
				}
			}
			JOINT LeftUpLegEnd
			{
				OFFSET 0.000000 0.000000 0.000000
				CHANNELS 3 Zrotation Yrotation Xrotation
				End Site
				{
					OFFSET 0.000000 0.000000 0.000000
				}
			}
		}
	}
}
MOTION
Frames: 4
Frame Time: 0.016667
-0.791319 87.613243 8.408979 -2.372566 -4.289084 -18.748781 -0.318801 -0.029536 9.768905 -0.487992 0.000231 1.045902 3.260898 -2.078119 15.551037 3.234192 -0.518782 8.576567 3.387450 0.124159 10.599626 0.743647 1.671170 -0.877163 -0.312760 0.629640 -21.028131 0.000000 0.000000 0.000000 93.139763 -1.058769 7.571295 59.330257 -0.384036 7.645989 -0.209230 17.918875 33.179508 15.261131 51.887745 3.290305 9.488725 -1.668038 40.437183 0.000004 -0.000003 -23.231136 -0.000023 0.000067 -16.179640 0.000014 0.000004 -0.000001 5.744304 16.733944 -3.828562 6.078070 -0.839165 -1.780345 6.040734 0.130192 -1.694006 -0.000013 0.000016 -0.000001 6.267151 6.917572 -6.345705 6.041897 -0.928391 -0.739021 6.116745 0.040009 -0.626192 -0.000004 0.000008 0.000000 12.609333 -8.773119 -9.396313 7.987515 1.869783 1.170942 7.832769 -0.077577 0.902418 -0.000016 -0.000458 0.000034 20.537722 -24.597322 -13.997055 9.353611 3.559746 3.961349 9.462883 -0.322879 3.370120 -0.000091 -0.000007 -0.000015 0.000000 0.000000 0.000000 0.000000 0.000000 0.000000 -92.972626 0.496997 12.632895 -60.421566 20.467407 9.112155 -1.800149 -20.412317 34.877514 -3.697355 -18.914988 -11.565606 -10.131501 1.811363 40.069645 0.000003 0.000033 -24.833967 -0.000065 -0.000024 -17.248745 0.000296 0.000001 -0.000191 -12.040203 16.159914 -7.634944 -5.888806 -0.807654 2.076935 -5.919407 0.151009 1.944603 -0.000018 -0.001112 -0.000009 -10.318628 6.712590 -9.253012 -5.800012 -0.915237 0.800891 -5.789433 0.054095 0.681915 0.000039 -0.000025 0.000051 -9.994205 -8.673166 -9.860695 -7.364971 1.870885 -1.188630 -7.266143 -0.075621 -0.905234 -0.001761 0.000017 -0.000005 -8.130248 -25.094559 -13.048922 -8.083549 3.636454 -3.504638 -8.023333 -0.251975 -2.986500 0.000327 0.000001 -0.000040 0.000000 0.000000 0.000000 0.000000 0.000000 0.000000 2.938117 6.684034 17.738909 -0.166097 -0.550637 14.259586 -3.105019 -1.064909 12.995790 -0.466119 0.976592 -17.973505 0.000000 0.000000 0.000000 0.000000 0.000000 0.000000 0.000000 0.000000 0.000000 10.109246 10.111404 23.996582 0.255217 1.177174 11.259429 -5.328475 12.375257 10.616337 1.493036 -1.414501 -15.768929 0.000000 0.000000 0.000000 0.000000 0.000000 0.000000 0.000000 0.000000 0.000000 
-0.800068 87.609009 8.405366 -2.392131 -4.327898 -18.750029 -0.326393 -0.028946 9.789695 -0.484515 -0.003757 1.037080 3.267647 -2.093973 15.546384 3.242488 -0.521685 8.540270 3.344141 0.131836 10.618922 0.739113 1.670624 -0.861149 -0.330220 0.623252 -21.005220 0.000000 0.000000 0.000000 93.196602 -1.065837 7.601774 59.195751 -0.833364 7.813917 -0.214948 17.709799 32.863350 14.704039 51.276722 2.778071 9.489232 -1.669435 40.436157 0.000004 -0.000002 -23.231670 -0.000022 0.000066 -16.176916 0.000014 0.000004 -0.000002 5.754803 16.721638 -4.011456 6.078908 -0.838501 -1.788026 6.044774 0.130681 -1.701643 -0.000013 0.000016 -0.000002 6.284946 6.913496 -6.475163 6.040768 -0.928017 -0.742109 6.117137 0.040176 -0.628957 -0.000004 0.000008 0.000001 12.602422 -8.770814 -9.446673 7.990545 1.869104 1.173895 7.837253 -0.077920 0.904978 -0.000016 -0.000416 0.000034 20.472858 -24.600603 -13.958710 9.345816 3.557848 3.965771 9.454550 -0.323479 3.373813 -0.000088 -0.000007 -0.000014 0.000000 0.000000 0.000000 0.000000 0.000000 0.000000 -93.027573 0.498387 12.659161 -60.336891 20.859003 9.220762 -1.803264 -20.202894 34.622181 -3.735297 -18.646055 -11.652381 -10.162955 1.814176 40.055290 0.000003 0.000033 -24.908619 -0.000063 -0.000024 -17.304672 0.000309 0.000001 -0.000212 -12.303031 16.152422 -7.827518 -6.010386 -0.805556 2.091792 -6.047241 0.152656 1.957822 -0.000017 -0.001107 -0.000008 -10.527438 6.711174 -9.377316 -5.918221 -0.914624 0.806562 -5.903774 0.054628 0.686589 0.000040 -0.000026 0.000052 -10.160810 -8.672893 -9.881129 -7.466090 1.869945 -1.196357 -7.367352 -0.076282 -0.910757 -0.001769 0.000017 -0.000005 -8.295628 -25.093313 -12.960694 -8.156268 3.633696 -3.524663 -8.094641 -0.254057 -3.003583 0.000331 0.000001 -0.000040 0.000000 0.000000 0.000000 0.000000 0.000000 0.000000 2.967035 6.717048 17.747829 -0.165658 -0.548804 14.249589 -3.108384 -1.021972 13.000032 -0.459709 0.979106 -17.968151 0.000000 0.000000 0.000000 0.000000 0.000000 0.000000 0.000000 0.000000 0.000000 10.141450 10.106253 24.022470 0.255116 1.178853 11.233162 -5.337345 12.398305 10.602883 1.495287 -1.416350 -15.753156 0.000000 0.000000 0.000000 0.000000 0.000000 0.000000 0.000000 0.000000 0.000000 
-0.807358 87.605453 8.401705 -2.410417 -4.369823 -18.750015 -0.332654 -0.028299 9.811016 -0.479483 -0.008082 1.027488 3.271453 -2.107839 15.539583 3.247758 -0.523618 8.500355 3.291501 0.143703 10.638226 0.733552 1.670983 -0.844477 -0.347369 0.617481 -20.982098 0.000000 0.000000 0.000000 93.249138 -1.071361 7.636508 59.060173 -1.337793 7.996624 -0.220453 17.475540 32.532825 14.160709 50.570225 2.265078 9.489558 -1.670671 40.435520 0.000004 -0.000002 -23.231724 -0.000022 0.000066 -16.173567 0.000014 0.000004 -0.000002 5.764163 16.710070 -4.213973 6.084517 -0.837280 -1.798829 6.053213 0.131740 -1.712147 -0.000012 0.000017 -0.000002 6.302030 6.909791 -6.622729 6.044664 -0.927426 -0.746365 6.122174 0.040526 -0.632725 -0.000004 0.000008 0.000001 12.590222 -8.769480 -9.515346 7.996764 1.868081 1.178176 7.844983 -0.078529 0.908556 -0.000016 -0.000368 0.000034 20.394630 -24.607538 -13.934178 9.338605 3.555154 3.973164 9.446921 -0.324750 3.380022 -0.000086 -0.000007 -0.000013 0.000000 0.000000 0.000000 0.000000 0.000000 0.000000 -93.081871 0.498050 12.687654 -60.242619 21.290876 9.338753 -1.806969 -19.971977 34.356056 -3.791671 -18.366541 -11.733203 -10.192575 1.816543 40.042095 0.000003 0.000033 -24.978598 -0.000062 -0.000024 -17.357811 0.000317 0.000000 -0.000230 -12.565062 16.145363 -8.032631 -6.133213 -0.803099 2.109088 -6.175739 0.154643 1.973296 -0.000017 -0.001103 -0.000008 -10.734177 6.709902 -9.511298 -6.036970 -0.913882 0.813192 -6.018470 0.055276 0.692049 0.000036 -0.000026 0.000054 -10.324574 -8.672758 -9.909803 -7.567002 1.868765 -1.205228 -7.468750 -0.077127 -0.917153 -0.001774 0.000018 -0.000005 -8.455450 -25.092012 -12.880455 -8.229097 3.630294 -3.547714 -8.166047 -0.256598 -3.023235 0.000331 0.000001 -0.000041 0.000000 0.000000 0.000000 0.000000 0.000000 0.000000 2.996248 6.754905 17.755690 -0.165146 -0.546835 14.235992 -3.111183 -0.977804 13.005098 -0.453174 0.981503 -17.962553 0.000000 0.000000 0.000000 0.000000 0.000000 0.000000 0.000000 0.000000 0.000000 10.172975 10.101859 24.050236 0.255101 1.180941 11.204143 -5.345177 12.425098 10.591466 1.497666 -1.418105 -15.737767 0.000000 0.000000 0.000000 0.000000 0.000000 0.000000 0.000000 0.000000 0.000000 
-0.813188 87.602280 8.398132 -2.428553 -4.414791 -18.748943 -0.336857 -0.027688 9.831865 -0.472791 -0.012733 1.017496 3.273586 -2.120543 15.531723 3.250090 -0.524621 8.458931 3.230744 0.159149 10.657304 0.726876 1.672188 -0.827627 -0.364294 0.612015 -20.960232 0.000000 0.000000 0.000000 93.297241 -1.075473 7.675356 58.922852 -1.899301 8.195796 -0.226274 17.213524 32.186859 13.624436 49.767056 1.743588 9.489038 -1.671658 40.435574 0.000004 -0.000001 -23.229504 -0.000022 0.000066 -16.168262 0.000014 0.000004 -0.000002 5.770815 16.698931 -4.429101 6.095139 -0.835511 -1.812662 6.066138 0.133335 -1.725473 -0.000012 0.000017 -0.000003 6.315989 6.906384 -6.783792 6.053411 -0.926617 -0.751760 6.131615 0.041054 -0.637471 -0.000004 0.000010 0.000001 12.568519 -8.769219 -9.599123 8.005338 1.866736 1.183688 7.855311 -0.079386 0.913079 -0.000017 -0.000315 0.000033 20.297701 -24.618538 -13.921681 9.330474 3.551781 3.982889 9.438554 -0.326598 3.388309 -0.000085 -0.000007 -0.000012 0.000000 0.000000 0.000000 0.000000 0.000000 0.000000 -93.135056 0.496756 12.719525 -60.138802 21.765152 9.466762 -1.809311 -19.723961 34.087349 -3.868575 -18.081743 -11.809731 -10.219648 1.818397 40.030304 0.000003 0.000033 -25.042313 -0.000060 -0.000024 -17.406839 0.000321 0.000000 -0.000244 -12.822979 16.139145 -8.242213 -6.256844 -0.800293 2.128696 -6.304456 0.156989 1.990961 -0.000016 -0.001099 -0.000008 -10.936532 6.708894 -9.649419 -6.156037 -0.913005 0.820716 -6.133368 0.056044 0.698254 0.000029 -0.000027 0.000057 -10.483244 -8.672939 -9.944808 -7.668150 1.867345 -1.215179 -7.570487 -0.078148 -0.924378 -0.001777 0.000018 -0.000005 -8.607123 -25.091101 -12.810198 -8.302736 3.626271 -3.573451 -8.237940 -0.259571 -3.045115 0.000327 0.000001 -0.000041 0.000000 0.000000 0.000000 0.000000 0.000000 0.000000 3.026635 6.795535 17.762074 -0.164554 -0.544727 14.220273 -3.113857 -0.934133 13.011203 -0.446578 0.983681 -17.956930 0.000000 0.000000 0.000000 0.000000 0.000000 0.000000 0.000000 0.000000 0.000000 10.205157 10.098413 24.078577 0.255180 1.183283 11.175533 -5.353285 12.455591 10.580437 1.500221 -1.419697 -15.722545 0.000000 0.000000 0.000000 0.000000 0.000000 0.000000 0.000000 0.000000 0.000000 
